<svg width="31" height="31" fill="none" xmlns="http://www.w3.org/2000/svg"><path d="M3.875 14.208c0-4.87 0-7.307 1.514-8.82 1.512-1.513 3.948-1.513 8.82-1.513h2.583c4.87 0 7.307 0 8.82 1.514 1.513 1.512 1.513 3.948 1.513 8.82v2.583c0 4.87 0 7.307-1.514 8.82-1.512 1.513-3.948 1.513-8.82 1.513h-2.583c-4.87 0-7.307 0-8.82-1.514-1.513-1.512-1.513-3.948-1.513-8.82v-2.583z" stroke="#AE946D" stroke-width="2.406"/><path d="M21.313 11.625a1.937 1.937 0 100-3.875 1.937 1.937 0 000 3.875z" fill="#AE946D"/><path d="M15.5 19.375a3.875 3.875 0 100-7.75 3.875 3.875 0 000 7.75z" stroke="#AE946D" stroke-width="2.406"/></svg>