<svg width="31" height="31" fill="none" xmlns="http://www.w3.org/2000/svg"><path d="M10.288 8.01a1.062 1.062 0 00-.694.138h-.018c-.484.284-.92.641-1.293 1.063-.31.357-.477.719-.521 1.068a1.47 1.47 0 00.053.613l.023.013a15.34 15.34 0 001.359 2.938 17.275 17.275 0 002.622 3.584l.03.044.05.036.03.035.036.03a17.52 17.52 0 003.593 2.636c1.492.812 2.397 1.196 2.941 1.356v.008c.16.049.304.07.45.07a2.08 2.08 0 001.245-.534 5.09 5.09 0 001.051-1.297v-.009c.26-.49.172-.953-.203-1.267a15.67 15.67 0 00-2.43-1.744c-.578-.314-1.165-.124-1.403.194l-.508.64c-.26.319-.733.275-.733.275l-.013.007c-3.528-.9-4.47-4.471-4.47-4.471s-.043-.486.283-.734l.636-.512c.305-.248.517-.834.19-1.413a15.254 15.254 0 00-1.74-2.428.966.966 0 00-.568-.34l.002.002zm5.961-1.552a.646.646 0 100 1.292c1.633 0 2.99.533 4.062 1.556.552.56.982 1.222 1.264 1.948.283.727.412 1.504.378 2.281a.647.647 0 101.292.054 6.921 6.921 0 00-.466-2.803 7.03 7.03 0 00-1.556-2.394l-.013-.013c-1.331-1.273-3.016-1.921-4.96-1.921z" fill="#AE946D"/><path d="M16.204 8.581a.646.646 0 000 1.292h.022c1.178.084 2.036.477 2.636 1.121.616.664.935 1.49.91 2.51a.646.646 0 101.293.03c.03-1.34-.4-2.496-1.256-3.418v-.003c-.875-.937-2.074-1.433-3.518-1.53l-.023-.003-.064.001z" fill="#AE946D"/><path d="M16.18 10.746a.644.644 0 00-.702.61.646.646 0 00.634.679c.54.028.885.19 1.102.41.218.219.381.571.41 1.123a.644.644 0 00.93.568.646.646 0 00.36-.636c-.042-.775-.284-1.46-.782-1.964-.5-.504-1.18-.749-1.953-.79z" fill="#AE946D"/><path fill-rule="evenodd" clip-rule="evenodd" d="M9.128 3.08a28.61 28.61 0 0112.483 0l.438.097a6.658 6.658 0 015.001 4.86 25.469 25.469 0 010 12.53 6.659 6.659 0 01-5.001 4.86l-.44.097a28.607 28.607 0 01-7.849.644l-3.427 3.067a.969.969 0 01-1.601-.562l-.567-3.387a6.658 6.658 0 01-4.476-4.72 25.468 25.468 0 010-12.529 6.659 6.659 0 015.001-4.86l.438-.097zm12.06 1.89a26.673 26.673 0 00-11.637 0l-.44.098a4.721 4.721 0 00-3.544 3.446 23.53 23.53 0 000 11.576 4.72 4.72 0 003.546 3.446l.116.026a.968.968 0 01.744.785l.38 2.27 2.418-2.163a.97.97 0 01.714-.245c2.582.183 5.177-.01 7.704-.575l.437-.098a4.72 4.72 0 003.546-3.446 23.539 23.539 0 000-11.576 4.722 4.722 0 00-3.546-3.446l-.438-.099z" fill="#AE946D"/></svg>