<svg width="31" height="31" fill="none" xmlns="http://www.w3.org/2000/svg"><path d="M24.606 6.342a12.679 12.679 0 00-9.054-3.759c-7.053 0-12.8 5.748-12.8 12.8 0 2.26.593 4.457 1.704 6.394l-1.808 6.64 6.781-1.783a12.804 12.804 0 006.123 1.563c7.052 0 12.8-5.748 12.8-12.8 0-3.424-1.33-6.64-3.746-9.055zm-9.054 19.685c-1.912 0-3.785-.517-5.425-1.486l-.388-.232-4.03 1.06 1.072-3.928-.258-.4a10.674 10.674 0 01-1.628-5.658C4.895 9.52 9.675 4.74 15.54 4.74a10.53 10.53 0 017.517 3.126 10.567 10.567 0 013.113 7.53c.026 5.865-4.753 10.63-10.617 10.63zm5.838-7.957c-.323-.155-1.899-.93-2.183-1.046-.297-.103-.504-.155-.723.155-.22.323-.827 1.046-1.008 1.253-.18.22-.374.245-.697.077-.323-.155-1.357-.503-2.57-1.588-.957-.853-1.59-1.9-1.783-2.222-.181-.323-.026-.49.142-.659.142-.142.323-.374.478-.555.155-.181.22-.323.323-.53.103-.22.051-.4-.026-.555-.078-.155-.723-1.731-.982-2.377-.258-.62-.53-.542-.723-.555h-.62c-.22 0-.556.077-.853.4-.284.323-1.11 1.098-1.11 2.674 0 1.576 1.15 3.1 1.304 3.306.155.22 2.26 3.45 5.464 4.831.762.336 1.356.53 1.821.672.762.245 1.46.207 2.015.13.62-.091 1.899-.776 2.157-1.525.271-.75.271-1.382.181-1.524-.09-.142-.284-.207-.607-.362z" fill="#AE946D"/></svg>