<svg width="147" height="38" fill="none" xmlns="http://www.w3.org/2000/svg"><g clip-path="url(#clip0_346_540)" fill="#fff"><path d="M129.88 22.8a791.463 791.463 0 008.56-19.34h.522c.904 2.252 1.8 4.47 2.688 6.653.8 1.939 1.696 4.087 2.688 6.444A371.975 371.975 0 00147 22.79a7.928 7.928 0 00-1.357-.105h-.588c-.147 0-.422.035-.822.114a70.996 70.996 0 00-1.043-3.012 90.49 90.49 0 00-1.332-3.354l-.47-1.108h-6.811a74.93 74.93 0 00-1.122 2.746 142.743 142.743 0 00-1.749 4.729 1.877 1.877 0 00-.404-.088 4.926 4.926 0 00-.509-.026c-.261 0-.466.017-.613.057a2.583 2.583 0 01-.3.056zm8.116-15.542l-2.949 6.836 2.088.053h3.706l-.47-1.162-2.375-5.727zM111.237 22.8c.051-.541.095-2.567.129-6.077.036-3.51.053-6.942.053-10.295v-2.96h.522a232.145 232.145 0 004.776 5.396 286.575 286.575 0 004.567 4.847 306.891 306.891 0 004.254 4.374l.053-2.436c0-1.903-.023-3.82-.066-5.75a962.05 962.05 0 01-.117-6.09c.26.07.548.105.861.105.313 0 .583-.035.809-.105 0 1.363-.031 3.532-.092 6.51-.06 2.977-.091 5.164-.091 6.561v6.287h-.365a67.022 67.022 0 00-3.093-3.64 225.157 225.157 0 00-3.954-4.297l-6.681-7.072-.078 3.615c0 .052.043 2.07.13 6.05.035 1.59.052 3.249.052 4.978a3.624 3.624 0 00-.887-.105c-.296 0-.557.035-.782.105zm-19.96 0a787.64 787.64 0 008.56-19.34h.522c.904 2.252 1.801 4.47 2.688 6.653.801 1.939 1.697 4.087 2.688 6.444a380.613 380.613 0 002.662 6.234 7.92 7.92 0 00-1.357-.105h-.587c-.148 0-.422.035-.822.114a70.901 70.901 0 00-1.044-3.012 88.77 88.77 0 00-1.332-3.354l-.469-1.108h-6.812a75.53 75.53 0 00-1.122 2.746 143.669 143.669 0 00-1.748 4.729 1.888 1.888 0 00-.405-.088 4.916 4.916 0 00-.508-.026c-.261 0-.466.017-.614.057a2.55 2.55 0 01-.3.056zm8.117-15.542l-2.95 6.836 2.088.053h3.706l-.47-1.162-2.374-5.727zM81.284.008c-.063.738-.115 2.273-.157 4.61a377.245 377.245 0 00-.063 6.708c0 .67.042 2.179.126 4.53.083 2.346.125 4.127.125 5.342l2.254.063c2.838 0 5.092-.178 6.762-.535l-.063 1.069.063 1.005-7.701-.125c-.773 0-1.576.015-2.41.047-.836.031-1.504.057-2.004.078.062-.732.115-2.294.156-4.681.042-2.388.063-4.65.063-6.787 0-1.698-.005-3.65-.016-5.861-.01-2.21-.079-4.027-.203-5.451.459.083.97.125 1.534.125.563 0 1.075-.047 1.534-.136zM53.523 22.8a788.01 788.01 0 008.56-19.34h.522c.905 2.252 1.8 4.47 2.688 6.653a1082 1082 0 002.688 6.444 371.555 371.555 0 002.663 6.234 7.93 7.93 0 00-1.358-.105H68.7c-.148 0-.422.035-.822.114a70.78 70.78 0 00-1.044-3.012 89.63 89.63 0 00-1.331-3.354l-.47-1.108H58.22a75.718 75.718 0 00-1.122 2.746 143.898 143.898 0 00-1.748 4.729 1.886 1.886 0 00-.404-.088 4.917 4.917 0 00-.51-.026c-.26 0-.465.017-.612.057a2.55 2.55 0 01-.3.056zM61.64 7.258l-2.95 6.836 2.088.053h3.706l-.47-1.162-2.374-5.727zM44.966 3.8c-.052.615-.096 1.895-.13 3.842a315.27 315.27 0 00-.053 5.592c0 .559.035 1.817.104 3.777.07 1.956.105 3.44.105 4.453l1.879.052c2.366 0 4.245-.148 5.637-.445l-.052.89.052.84-6.42-.105c-.644 0-1.313.013-2.01.039-.696.026-1.252.048-1.67.065.053-.61.096-1.912.131-3.903.035-1.99.052-3.877.052-5.658 0-1.415-.004-3.043-.013-4.886-.009-1.841-.065-3.357-.17-4.544.383.07.81.104 1.28.104.469 0 .896-.039 1.278-.113zm-12.939-.009c-.052.615-.096 1.895-.13 3.842a314.32 314.32 0 00-.053 5.593c0 .558.035 1.816.104 3.776.07 1.956.104 3.44.104 4.453l1.88.053c2.366 0 4.245-.149 5.637-.446l-.052.89.052.84-6.42-.105c-.644 0-1.313.013-2.01.04-.695.025-1.252.047-1.67.065.053-.612.096-1.913.131-3.904.035-1.99.052-3.877.052-5.658 0-1.415-.004-3.043-.013-4.885-.009-1.842-.065-3.358-.17-4.545.383.07.81.104 1.28.104.469 0 .896-.039 1.278-.113zm-6.344.001c-.052.615-.095 1.894-.13 3.84a314.516 314.516 0 00-.052 5.594c0 1.431.004 3.09.013 4.966.009 1.877.065 3.408.169 4.6a6.34 6.34 0 00-1.279-.114c-.47 0-.895.035-1.278.105.052-.61.095-1.911.13-3.901.035-1.99.052-3.875.052-5.656 0-1.414-.004-3.042-.013-4.883-.009-1.841-.065-3.356-.17-4.542.384.07.81.104 1.28.104s.896-.039 1.278-.113zM9.016 22.8c-1.544-4.047-3.068-7.98-4.57-11.793A569.244 569.244 0 000 0c.208.047.46.079.751.105.293.021.574.031.845.031.585 0 1.128-.042 1.628-.126C4.247 2.9 5.04 5.08 5.604 6.546a542.024 542.024 0 002.504 6.535c.209.545 1.086 2.691 2.63 6.44a376.456 376.456 0 005.088-13.18c.97-2.649 1.727-4.76 2.27-6.33.313.083.678.126 1.096.126.187 0 .365-.006.532-.016.166-.011.355-.048.563-.11a917.742 917.742 0 00-3.13 7.635c-.46 1.157-1.462 3.691-3.006 7.608-1.44 3.666-2.42 6.18-2.942 7.546a4.036 4.036 0 00-1.096-.136h-.454c-.115 0-.328.042-.642.136zm43.991 7.683v7.439h-1.002v-3.385h-3.991v3.385h-1.002v-7.44h1.002V33.8h3.991v-3.317h1.002zm14.014 3.722c0 .557-.087 1.068-.263 1.533a3.525 3.525 0 01-.743 1.203c-.32.335-.705.595-1.154.78a3.88 3.88 0 01-1.49.279c-.544 0-1.04-.093-1.487-.279a3.331 3.331 0 01-1.152-.78 3.517 3.517 0 01-.743-1.203 4.297 4.297 0 01-.263-1.533c0-.557.087-1.07.263-1.535a3.54 3.54 0 01.743-1.204c.32-.338.705-.6 1.152-.786a3.82 3.82 0 011.487-.28 3.84 3.84 0 011.49.28c.45.187.833.448 1.153.786.32.337.568.738.744 1.204.176.465.263.977.263 1.535zm-1.027 0a3.82 3.82 0 00-.186-1.23 2.61 2.61 0 00-.527-.923 2.287 2.287 0 00-.826-.578 2.79 2.79 0 00-1.084-.202c-.396 0-.756.067-1.08.202a2.31 2.31 0 00-.827.578c-.23.251-.407.559-.53.923a3.801 3.801 0 00-.187 1.23c0 .457.062.865.186 1.227.124.362.301.668.53.919.23.25.505.443.828.576.324.133.684.2 1.08.2.399 0 .76-.067 1.084-.2.323-.133.599-.325.826-.576.227-.251.403-.557.527-.92a3.79 3.79 0 00.186-1.226zm12.438-2.876h-2.396v6.593h-.996v-6.593h-2.401v-.846h5.793v.846zm10.638 5.773l-.006.82h-4.56v-7.44h4.56v.821h-3.558v2.47h2.882v.79h-2.882V37.1h3.563zm10.884-.026v.846h-4.198v-7.44h.997v6.593h3.201z"/></g><defs><clipPath id="clip0_346_540"><path fill="#fff" d="M0 0h147v38H0z"/></clipPath></defs></svg>