<svg width="147" height="38" viewBox="0 0 147 38" fill="none" xmlns="http://www.w3.org/2000/svg">
<g clip-path="url(#clip0_346_540)">
<path d="M129.88 22.8001C132.907 16.1947 135.76 9.74651 138.44 3.45972H138.962C139.866 5.71188 140.762 7.93001 141.65 10.1129C142.45 12.0515 143.346 14.1996 144.338 16.5569C145.434 19.1759 146.322 21.2544 147 22.7913C146.599 22.7213 146.148 22.6865 145.643 22.6865C145.399 22.6865 145.203 22.6865 145.055 22.6865C144.908 22.6865 144.633 22.7213 144.233 22.8001C143.867 21.6691 143.52 20.6696 143.19 19.7879C142.755 18.6267 142.31 17.5086 141.858 16.4345L141.388 15.3261H137.996H134.577C134.333 15.8715 133.96 16.7884 133.455 18.072C132.863 19.5871 132.28 21.163 131.706 22.8005C131.602 22.7611 131.467 22.7347 131.302 22.7129C131.136 22.6957 130.967 22.6869 130.793 22.6869C130.532 22.6869 130.327 22.7045 130.18 22.7439C130.032 22.7783 129.931 22.7959 129.88 22.8005V22.8001ZM137.996 7.25757L135.047 14.094L137.135 14.1468H140.841L140.371 12.9855L137.996 7.25757Z" fill="white"/>
<path d="M111.237 22.8001C111.288 22.2585 111.332 20.2332 111.366 16.7229C111.402 13.2127 111.419 9.78131 111.419 6.4283V3.46851H111.941C113.576 5.37183 115.168 7.17074 116.717 8.86445C117.883 10.1393 119.406 11.7546 121.284 13.7107C122.937 15.4396 124.355 16.8974 125.538 18.0854L125.591 15.6493C125.591 13.7459 125.568 11.8292 125.525 9.8995C125.482 7.96978 125.442 5.93946 125.408 3.80931C125.668 3.87931 125.956 3.91374 126.269 3.91374C126.582 3.91374 126.852 3.87931 127.078 3.80931C127.078 5.17178 127.047 7.34095 126.986 10.3187C126.926 13.2961 126.895 15.4833 126.895 16.8801V23.1673H126.53C125.699 22.1021 124.668 20.888 123.437 19.5263C122.346 18.3038 121.028 16.8721 119.483 15.2304L112.802 8.15797L112.724 11.773C112.724 11.825 112.767 13.8423 112.854 17.8238C112.889 19.4135 112.906 21.072 112.906 22.8009C112.628 22.7309 112.332 22.6961 112.019 22.6961C111.723 22.6961 111.462 22.7309 111.237 22.8009V22.8001Z" fill="white"/>
<path d="M91.2771 22.8001C94.3045 16.1947 97.1577 9.74651 99.8371 3.45972H100.359C101.263 5.71188 102.16 7.93001 103.047 10.1129C103.848 12.0515 104.744 14.1996 105.735 16.5569C106.832 19.1759 107.719 21.2544 108.397 22.7913C107.997 22.7213 107.545 22.6865 107.04 22.6865C106.796 22.6865 106.601 22.6865 106.453 22.6865C106.305 22.6865 106.031 22.7213 105.631 22.8001C105.265 21.6691 104.917 20.6696 104.587 19.7879C104.152 18.6267 103.708 17.5086 103.255 16.4345L102.786 15.3261H99.3935H95.9744C95.7309 15.8715 95.357 16.7884 94.8521 18.072C94.2606 19.5871 93.6776 21.163 93.1037 22.8005C92.9992 22.7611 92.8643 22.7347 92.6993 22.7129C92.5339 22.6957 92.3643 22.6869 92.1906 22.6869C91.9295 22.6869 91.7249 22.7045 91.5774 22.7439C91.4295 22.7783 91.3289 22.7959 91.2771 22.8005V22.8001ZM99.3935 7.25757L96.4443 14.094L98.5322 14.1468H102.238L101.768 12.9855L99.3935 7.25757Z" fill="white"/>
<path d="M81.2835 0.00805664C81.221 0.746284 81.1688 2.28126 81.1269 4.6172C81.0853 6.95275 81.0644 9.18847 81.0644 11.3259C81.0644 11.9956 81.1059 13.5046 81.1898 15.8558C81.2732 18.2021 81.3148 19.9827 81.3148 21.1979L83.5689 21.2606C86.4072 21.2606 88.6614 21.0827 90.3309 20.7262L90.2684 21.7949L90.3309 22.8005L82.6299 22.6747C81.8574 22.6747 81.0537 22.6904 80.2195 22.7221C79.3842 22.7531 78.7165 22.7795 78.2158 22.8005C78.2783 22.0677 78.3305 20.5063 78.3724 18.1187C78.4139 15.7308 78.4349 13.4683 78.4349 11.3316C78.4349 9.63447 78.4296 7.68141 78.4193 5.47094C78.4086 3.26123 78.3404 1.44358 78.2158 0.0195317C78.675 0.103299 79.186 0.145375 79.7496 0.145375C80.3133 0.145375 80.8247 0.0979444 81.2839 0.00882164L81.2835 0.00805664Z" fill="white"/>
<path d="M53.5233 22.8001C56.5506 16.1947 59.4038 9.74651 62.0832 3.45972H62.6053C63.5096 5.71188 64.4059 7.93001 65.2931 10.1129C66.0938 12.0515 66.9897 14.1996 67.9813 16.5569C69.0777 19.1759 69.9652 21.2544 70.6436 22.7913C70.2431 22.7213 69.7911 22.6865 69.2861 22.6865C69.0426 22.6865 68.8467 22.6865 68.6989 22.6865C68.5514 22.6865 68.277 22.7213 67.8769 22.8001C67.511 21.6691 67.1631 20.6696 66.8331 19.7879C66.3983 18.6267 65.9539 17.5086 65.5016 16.4345L65.0321 15.3261H61.6396H58.2205C57.977 15.8715 57.6032 16.7884 57.0982 18.072C56.5068 19.5871 55.9237 21.163 55.3498 22.8005C55.2454 22.7611 55.1105 22.7347 54.9455 22.7129C54.7801 22.6957 54.6105 22.6869 54.4367 22.6869C54.1757 22.6869 53.971 22.7045 53.8236 22.7439C53.6757 22.7783 53.5751 22.7959 53.5233 22.8005V22.8001ZM61.6396 7.25757L58.6904 14.094L60.7784 14.1468H64.4845L64.0146 12.9855L61.6396 7.25757Z" fill="white"/>
<path d="M44.966 3.80005C44.9137 4.41511 44.8703 5.69458 44.8352 7.64189C44.8006 9.58882 44.783 11.4528 44.783 13.2344C44.783 13.7929 44.8177 15.0509 44.8874 17.0109C44.9572 18.9666 44.9915 20.4511 44.9915 21.464L46.871 21.5164C49.2368 21.5164 51.1163 21.3679 52.508 21.0711L52.4558 21.9616L52.508 22.8004L46.0883 22.6956C45.4442 22.6956 44.7746 22.7086 44.0788 22.735C43.3825 22.761 42.8261 22.7828 42.4085 22.8004C42.4607 22.1892 42.5041 20.8879 42.5392 18.897C42.5739 16.9065 42.5914 15.0203 42.5914 13.239C42.5914 11.8242 42.5868 10.1959 42.5781 8.35334C42.5693 6.5116 42.5129 4.99613 42.4085 3.80885C42.7911 3.87884 43.2175 3.91327 43.6874 3.91327C44.1569 3.91327 44.5837 3.87425 44.9663 3.80005H44.966Z" fill="white"/>
<path d="M32.0269 3.79126C31.9747 4.40632 31.9312 5.68579 31.8962 7.6331C31.8615 9.58003 31.844 11.444 31.844 13.2257C31.844 13.7841 31.8787 15.0421 31.9484 17.0021C32.0181 18.9578 32.0524 20.4423 32.0524 21.4552L33.9319 21.5076C36.2977 21.5076 38.1773 21.3592 39.569 21.0623L39.5168 21.9528L39.569 22.7916L33.1492 22.6868C32.5052 22.6868 31.8356 22.6998 31.1397 22.7262C30.4435 22.7522 29.8871 22.774 29.4694 22.7916C29.5216 22.1804 29.5651 20.8791 29.6001 18.8882C29.6348 16.8977 29.6523 15.0115 29.6523 13.2302C29.6523 11.8154 29.6478 10.1871 29.639 8.34455C29.6302 6.50281 29.5738 4.98734 29.4694 3.80006C29.852 3.87005 30.2785 3.90448 30.7483 3.90448C31.2178 3.90448 31.6447 3.86547 32.0273 3.79126H32.0269Z" fill="white"/>
<path d="M25.6829 3.79175C25.6311 4.40681 25.5877 5.68551 25.553 7.63206C25.5183 9.57823 25.5008 11.4456 25.5008 13.2261C25.5008 14.6575 25.505 16.316 25.5137 18.1922C25.5225 20.0691 25.5789 21.6002 25.6829 22.7921C25.3007 22.7129 24.8743 22.6785 24.4044 22.6785C23.9345 22.6785 23.5085 22.7129 23.1259 22.7829C23.1777 22.1725 23.2215 20.8716 23.2562 18.8818C23.2909 16.8916 23.3084 15.0071 23.3084 13.2261C23.3084 11.8124 23.3038 10.1845 23.2954 8.34313C23.2863 6.50177 23.2299 4.98745 23.1259 3.80055C23.5085 3.87054 23.9345 3.90497 24.4044 3.90497C24.8743 3.90497 25.3007 3.86595 25.6829 3.79175Z" fill="white"/>
<path d="M9.01613 22.8001C7.47158 18.7525 5.94838 14.8192 4.44538 11.0072C2.79641 6.81273 1.31475 3.1476 0 0C0.208454 0.0470477 0.459209 0.0787953 0.751122 0.105188C1.0438 0.126225 1.32542 0.13617 1.59637 0.13617C2.18058 0.13617 2.72363 0.0940953 3.22437 0.0103275C4.24683 2.90089 5.04025 5.07923 5.6035 6.54574C6.64729 9.31008 7.48226 11.4888 8.10838 13.0808C8.31684 13.6255 9.19372 15.7724 10.7386 19.5217C11.4273 17.846 12.3034 15.6363 13.3681 12.8922C14.0358 11.1752 14.8555 8.99107 15.8261 6.34149C16.7964 3.69228 17.5529 1.58164 18.0955 0.01071C18.4092 0.0944778 18.7739 0.136553 19.1915 0.136553C19.3794 0.136553 19.557 0.131198 19.7239 0.12087C19.8904 0.109778 20.0787 0.0734402 20.2871 0.01071C19.2434 2.52413 18.1999 5.06891 17.1569 7.64582C16.6973 8.80288 15.6954 11.337 14.1509 15.2541C12.7111 18.9197 11.7302 21.4331 11.2085 22.8001C10.8743 22.706 10.5092 22.6636 10.1125 22.6636C9.92464 22.6636 9.77335 22.6636 9.65864 22.6636C9.54393 22.6636 9.33053 22.7057 9.01689 22.8001H9.01613Z" fill="white"/>
<path d="M53.0073 30.4827V37.9219H52.0054V34.5372H48.0139V37.9219H47.0124V30.4827H48.0139V33.8001H52.0054V30.4827H53.0073ZM67.021 34.2048C67.021 34.7621 66.9337 35.2727 66.758 35.7382C66.5823 36.2037 66.3342 36.6054 66.0145 36.9408C65.6944 37.2763 65.3103 37.536 64.8613 37.7215C64.412 37.9066 63.9143 38 63.3709 38C62.8267 38 62.3313 37.9066 61.8839 37.7215C61.4365 37.536 61.0524 37.2766 60.7323 36.9408C60.4125 36.6054 60.1645 36.2037 59.9892 35.7382C59.8131 35.2727 59.7258 34.7625 59.7258 34.2048C59.7258 33.6479 59.8131 33.1353 59.9892 32.6698C60.1645 32.2043 60.4125 31.8031 60.7323 31.4657C61.0524 31.1283 61.4365 30.8667 61.8839 30.68C62.3313 30.493 62.8271 30.3997 63.3709 30.3997C63.9147 30.3997 64.412 30.493 64.8613 30.68C65.3103 30.8671 65.6944 31.1283 66.0145 31.4657C66.3342 31.8031 66.5823 32.2043 66.758 32.6698C66.9337 33.1353 67.021 33.6475 67.021 34.2048ZM65.9936 34.2048C65.9936 33.7481 65.9314 33.338 65.8076 32.9747C65.6837 32.6109 65.5081 32.3034 65.2809 32.0521C65.0538 31.8011 64.7783 31.6095 64.4547 31.4741C64.1312 31.3391 63.7699 31.2718 63.3705 31.2718C62.9746 31.2718 62.6148 31.3391 62.2913 31.4741C61.9681 31.6095 61.6922 31.8011 61.4636 32.0521C61.2345 32.3034 61.0573 32.6109 60.9331 32.9747C60.8093 33.338 60.7471 33.7481 60.7471 34.2048C60.7471 34.6619 60.8093 35.07 60.9331 35.4318C61.0573 35.7937 61.2345 36.1001 61.4636 36.3506C61.6922 36.6015 61.9678 36.7935 62.2913 36.927C62.6148 37.0602 62.9746 37.1279 63.3705 37.1279C63.7699 37.1279 64.1312 37.0602 64.4547 36.927C64.7779 36.7935 65.0538 36.6015 65.2809 36.3506C65.5081 36.0997 65.6837 35.7937 65.8076 35.4318C65.9314 35.07 65.9936 34.6619 65.9936 34.2048ZM78.4322 31.3288H76.0363V37.9219H75.0398V31.3288H72.6386V30.4827H78.4318V31.3288H78.4322ZM89.0695 37.1015L89.0642 37.9219H84.5048V30.4827H89.0642V31.3031H85.5063V33.7737H88.3877V34.5628H85.5063V37.1011H89.0691L89.0695 37.1015ZM99.9541 37.0755V37.9215H95.7564V30.4823H96.7533V37.0755H99.9545H99.9541Z" fill="white"/>
</g>
<defs>
<clipPath id="clip0_346_540">
<rect width="147" height="38" fill="white"/>
</clipPath>
</defs>
</svg>
