<svg width="31" height="31" viewBox="0 0 31 31" fill="none" xmlns="http://www.w3.org/2000/svg">
<path d="M3.875 14.2083C3.875 9.33746 3.875 6.90137 5.38883 5.38883C6.90137 3.875 9.33746 3.875 14.2083 3.875H16.7917C21.6625 3.875 24.0986 3.875 25.6112 5.38883C27.125 6.90137 27.125 9.33746 27.125 14.2083V16.7917C27.125 21.6625 27.125 24.0986 25.6112 25.6112C24.0986 27.125 21.6625 27.125 16.7917 27.125H14.2083C9.33746 27.125 6.90137 27.125 5.38883 25.6112C3.875 24.0986 3.875 21.6625 3.875 16.7917V14.2083Z" stroke="#AE946D" stroke-width="2.40625"/>
<path d="M21.3125 11.625C22.3826 11.625 23.25 10.7576 23.25 9.6875C23.25 8.61745 22.3826 7.75 21.3125 7.75C20.2424 7.75 19.375 8.61745 19.375 9.6875C19.375 10.7576 20.2424 11.625 21.3125 11.625Z" fill="#AE946D"/>
<path d="M15.5 19.375C17.6401 19.375 19.375 17.6401 19.375 15.5C19.375 13.3599 17.6401 11.625 15.5 11.625C13.3599 11.625 11.625 13.3599 11.625 15.5C11.625 17.6401 13.3599 19.375 15.5 19.375Z" stroke="#AE946D" stroke-width="2.40625"/>
</svg>
