<svg width="31" height="31" viewBox="0 0 31 31" fill="none" xmlns="http://www.w3.org/2000/svg">
<path d="M10.2881 8.01059C10.0481 7.97565 9.80327 8.02397 9.59449 8.14751H9.5764C9.09203 8.43167 8.65545 8.78947 8.28345 9.21055C7.97345 9.56834 7.80553 9.93001 7.76161 10.2788C7.73578 10.4854 7.75386 10.6947 7.81457 10.8923L7.83782 10.9052C8.18657 11.9295 8.64124 12.9151 9.19665 13.8425C9.91282 15.1451 10.7941 16.3498 11.8187 17.4268L11.8497 17.4708L11.8988 17.5069L11.9285 17.5418L11.9647 17.5728C13.0455 18.6005 14.253 19.486 15.5581 20.2078C17.05 21.0203 17.9554 21.4039 18.4992 21.564V21.5718C18.6581 21.6209 18.8028 21.6428 18.9487 21.6428C19.4119 21.6086 19.8502 21.4204 20.1939 21.1081C20.6137 20.7361 20.9689 20.2982 21.2453 19.8113V19.8022C21.5049 19.3114 21.4171 18.849 21.0425 18.5351C20.2901 17.8777 19.4765 17.2938 18.6129 16.7913C18.0342 16.4775 17.4465 16.6673 17.2089 16.9851L16.7012 17.6258C16.4403 17.9435 15.9676 17.8996 15.9676 17.8996L15.9547 17.9073C12.4271 17.0071 11.4855 13.4356 11.4855 13.4356C11.4855 13.4356 11.4416 12.9499 11.7684 12.7019L12.4039 12.1904C12.7087 11.9424 12.9205 11.356 12.5937 10.7773C12.0946 9.91291 11.5119 9.09956 10.8539 8.34901C10.7103 8.17237 10.5091 8.05206 10.2855 8.0093L10.2881 8.01059ZM16.2492 6.45801C16.0779 6.45801 15.9136 6.52605 15.7925 6.64717C15.6714 6.76829 15.6033 6.93256 15.6033 7.10384C15.6033 7.27513 15.6714 7.4394 15.7925 7.56051C15.9136 7.68163 16.0779 7.74967 16.2492 7.74967C17.8818 7.74967 19.2381 8.28313 20.3114 9.30613C20.863 9.86542 21.2931 10.528 21.5747 11.254C21.8576 11.9812 21.9867 12.7575 21.9532 13.535C21.946 13.7063 22.0071 13.8735 22.1231 13.9997C22.2392 14.1259 22.4006 14.2008 22.5719 14.208C22.7431 14.2152 22.9103 14.1541 23.0365 14.038C23.1627 13.922 23.2376 13.7606 23.2448 13.5893C23.2849 12.6328 23.1261 11.6784 22.7785 10.7864C22.4294 9.89014 21.9001 9.07508 21.2234 8.39163L21.2104 8.37872C19.8787 7.10642 18.1944 6.45801 16.2492 6.45801Z" fill="#AE946D"/>
<path d="M16.2039 8.58137C16.0327 8.58137 15.8684 8.64941 15.7473 8.77053C15.6261 8.89165 15.5581 9.05592 15.5581 9.2272C15.5581 9.39849 15.6261 9.56276 15.7473 9.68388C15.8684 9.80499 16.0327 9.87304 16.2039 9.87304H16.2259C17.4039 9.95699 18.2616 10.3497 18.8622 10.9942C19.4783 11.6581 19.7974 12.4835 19.7728 13.5039C19.7689 13.6752 19.8331 13.841 19.9515 13.9649C20.0698 14.0888 20.2325 14.1607 20.4038 14.1646C20.5751 14.1685 20.7409 14.1043 20.8648 13.9859C20.9887 13.8676 21.0605 13.7049 21.0645 13.5336C21.0955 12.1942 20.6641 11.0381 19.809 10.1159V10.1133C18.9345 9.17554 17.7346 8.67954 16.2905 8.58266L16.2685 8.58008L16.2039 8.58137Z" fill="#AE946D"/>
<path d="M16.1794 10.7457C16.093 10.738 16.0059 10.7479 15.9234 10.7747C15.8408 10.8014 15.7645 10.8446 15.699 10.9015C15.6335 10.9584 15.5802 11.0279 15.5422 11.1059C15.5041 11.1839 15.4822 11.2687 15.4777 11.3554C15.4732 11.442 15.4862 11.5287 15.5159 11.6102C15.5456 11.6917 15.5914 11.7664 15.6507 11.8298C15.7099 11.8933 15.7813 11.9441 15.8606 11.9793C15.9399 12.0145 16.0255 12.0333 16.1122 12.0347C16.6522 12.0632 16.997 12.2259 17.214 12.4442C17.4323 12.6638 17.5951 13.0164 17.6248 13.568C17.6264 13.6546 17.6454 13.7401 17.6808 13.8192C17.7161 13.8984 17.767 13.9696 17.8305 14.0287C17.8939 14.0877 17.9686 14.1334 18.0501 14.163C18.1316 14.1926 18.2182 14.2055 18.3048 14.2009C18.3913 14.1963 18.4761 14.1743 18.554 14.1363C18.6318 14.0982 18.7013 14.0449 18.7581 13.9794C18.815 13.914 18.858 13.8377 18.8848 13.7553C18.9116 13.6728 18.9214 13.5859 18.9139 13.4995C18.8725 12.7245 18.6297 12.0399 18.1324 11.5362C17.6325 11.0324 16.9518 10.787 16.1794 10.7457Z" fill="#AE946D"/>
<path fill-rule="evenodd" clip-rule="evenodd" d="M9.12821 3.07969C13.2384 2.16094 17.5007 2.16094 21.6109 3.07969L22.0487 3.17657C23.2503 3.44517 24.3538 4.04163 25.2367 4.89968C26.1196 5.75773 26.7473 6.84376 27.0501 8.03711C28.0934 12.1483 28.0934 16.455 27.0501 20.5663C26.7473 21.7596 26.1196 22.8457 25.2367 23.7037C24.3538 24.5618 23.2503 25.1582 22.0487 25.4268L21.6096 25.5237C19.0353 26.0994 16.3938 26.3163 13.7601 26.1682L10.3333 29.2347C10.2041 29.3503 10.0463 29.4292 9.87619 29.463C9.70612 29.4969 9.53008 29.4845 9.36645 29.427C9.20282 29.3696 9.0576 29.2694 8.94594 29.1367C8.83428 29.004 8.76028 28.8438 8.73167 28.6728L8.16462 25.286C7.07728 24.9477 6.09487 24.3361 5.31129 23.5098C4.52772 22.6835 3.96916 21.67 3.689 20.5663C2.64566 16.455 2.64566 12.1483 3.689 8.03711C3.99179 6.84376 4.61951 5.75773 5.50241 4.89968C6.38532 4.04163 7.48883 3.44517 8.69033 3.17657L9.12821 3.07969ZM21.1885 4.9694C17.3565 4.11278 13.3826 4.11278 9.55058 4.9694L9.11142 5.06757C8.25984 5.25829 7.4778 5.68131 6.85213 6.28965C6.22646 6.898 5.78164 7.66786 5.56708 8.51374C4.60313 12.3122 4.60313 16.2912 5.56708 20.0897C5.78174 20.9357 6.22675 21.7057 6.85267 22.314C7.47858 22.9224 8.2609 23.3453 9.11271 23.5358L9.22896 23.5617C9.41702 23.6037 9.58826 23.7009 9.72079 23.8408C9.85332 23.9807 9.94112 24.1569 9.97296 24.347L10.3527 26.6177L12.7707 24.4542C12.8673 24.3675 12.9803 24.3012 13.103 24.259C13.2257 24.2168 13.3556 24.1998 13.485 24.2088C16.0671 24.392 18.6622 24.1983 21.1885 23.634L21.6264 23.5358C22.4782 23.3453 23.2605 22.9224 23.8864 22.314C24.5123 21.7057 24.9573 20.9357 25.172 20.0897C26.1356 16.2922 26.1356 12.3125 25.172 8.51374C24.9573 7.66769 24.5123 6.89772 23.8864 6.28936C23.2605 5.681 22.4782 5.25808 21.6264 5.06757L21.1885 4.9694Z" fill="#AE946D"/>
</svg>
