<svg width="31" height="31" viewBox="0 0 31 31" fill="none" xmlns="http://www.w3.org/2000/svg">
<path d="M24.6062 6.34183C23.422 5.14566 22.0115 4.19724 20.4569 3.5519C18.9023 2.90656 17.2348 2.57722 15.5516 2.58308C8.49914 2.58308 2.75122 8.331 2.75122 15.3835C2.75122 17.6439 3.34539 19.8398 4.45622 21.7773L2.64789 28.4164L9.42914 26.6339C11.3021 27.6543 13.4075 28.1968 15.5516 28.1968C22.6041 28.1968 28.3521 22.4489 28.3521 15.3964C28.3521 11.9735 27.0216 8.75725 24.6062 6.34183ZM15.5516 26.0268C13.64 26.0268 11.7671 25.5102 10.1266 24.5414L9.73914 24.3089L5.70914 25.3681L6.78122 21.4414L6.52289 21.041C5.46081 19.345 4.89686 17.3846 4.89539 15.3835C4.89539 9.51933 9.67455 4.74017 15.5387 4.74017C18.3804 4.74017 21.0541 5.851 23.0562 7.866C24.0476 8.85279 24.8332 10.0265 25.3675 11.3192C25.9019 12.6118 26.1743 13.9977 26.1691 15.3964C26.195 21.2606 21.4158 26.0268 15.5516 26.0268ZM21.39 18.0702C21.0671 17.9152 19.4912 17.1402 19.2071 17.0239C18.91 16.9206 18.7033 16.8689 18.4837 17.1789C18.2641 17.5018 17.6571 18.2252 17.4762 18.4318C17.2954 18.6514 17.1016 18.6773 16.7787 18.5093C16.4558 18.3543 15.4225 18.0056 14.2083 16.9206C13.2525 16.0681 12.6196 15.0218 12.4258 14.6989C12.245 14.376 12.4 14.2081 12.5679 14.0402C12.71 13.8981 12.8908 13.6656 13.0458 13.4848C13.2008 13.3039 13.2654 13.1618 13.3687 12.9552C13.4721 12.7356 13.4204 12.5548 13.3429 12.3998C13.2654 12.2448 12.6196 10.6689 12.3612 10.0231C12.1029 9.40309 11.8316 9.48059 11.6379 9.46767H11.0179C10.7983 9.46767 10.4625 9.54517 10.1654 9.86808C9.88122 10.191 9.05456 10.966 9.05456 12.5418C9.05456 14.1177 10.2041 15.6418 10.3591 15.8485C10.5141 16.0681 12.6196 19.2973 15.8229 20.6793C16.585 21.0152 17.1791 21.2089 17.6441 21.351C18.4062 21.5964 19.1037 21.5577 19.6591 21.4802C20.2791 21.3898 21.5579 20.7052 21.8162 19.956C22.0875 19.2068 22.0875 18.5739 21.9971 18.4318C21.9066 18.2898 21.7129 18.2252 21.39 18.0702Z" fill="#AE946D"/>
</svg>
